# xmcd
#
# Track frame offsets:
#  150
#  9830
#  20555
#  31142
#  42589
#  52562
#  63373
#  72965
#  86136
#  97213
#  107410
#  118228
#
# Disc length: 1716 seconds
#
# Revision: 0
# Processed by: cddbd v1.5.1PL2 Copyright (c) Steve Scherf et al.
# Submitted via: Collectorz.com_Music_Collector 6.9
#
DISCID=9606b20c
DTITLE=Fats Domino - Man, That's All
DYEAR=2002
DGENRE=Popular music
TTITLE0=Reelin' and rockin'
TTITLE1=Kansas City
TTITLE2=Let me be your sweetheart
TTITLE3=Man, that's all
TTITLE4=The girl I'm gonna marry
TTITLE5=There goes my heart again
TTITLE6=Wigs
TTITLE7=Heartbreak hill
TTITLE8=If you don't know what love is
TTITLE9=Just a lonely man
TTITLE10=I gotta right to cry
TTITLE11=Bye baby, bye bye
EXTD=
EXTT0=
EXTT1=
EXTT2=
EXTT3=
EXTT4=
EXTT5=
EXTT6=
EXTT7=
EXTT8=
EXTT9=
EXTT10=
EXTT11=
PLAYORDER=
